# xmcd
#
# Track frame offsets: 
#        150
#        18538
#        34739
#        48334
#        74272
#        93565
#        110377
#        133960
#        166001
#        182606
#        201871
#        221373
#
# Disc length: 3599 seconds
#
# Revision: 1
# Processed by: cddbd v1.5.2PL0 Copyright (c) Steve Scherf et al.
# Submitted via: ExactAudioCopy v1.0b3
#
DISCID=a50e0d0c
DTITLE=Seasick Steve and The Level Devils - Cheap
DYEAR=2004
DGENRE=Blues Rock
TTITLE0=Cheap
TTITLE1=Rockin' Chair
TTITLE2=Hobo Blues
TTITLE3=Story #1
TTITLE4=Sorry My Jesus
TTITLE5=Love Thang
TTITLE6=Dr Jekyll and Mr Hyde
TTITLE7=Story #2
TTITLE8=8 Ball
TTITLE9=Xmas Prison Blues
TTITLE10=Levi Song
TTITLE11=Rooster Blues
EXTD=
EXTT0=
EXTT1=
EXTT2=
EXTT3=
EXTT4=
EXTT5=
EXTT6=
EXTT7=
EXTT8=
EXTT9=
EXTT10=
EXTT11=
PLAYORDER=
